<svg width="50" height="50" viewBox="0 0 50 50" xmlns="http://www.w3.org/2000/svg"><g fill="none" fill-rule="evenodd"><path d="m24.9998959 0c3.2259005 0 6.3082934.61172717 9.1388711 1.72479151l.0008332-.0012497c1.2569931.49383899 2.4644147 1.08682069 3.6124753 1.76894751l-.0006248.00166626-17.0853172 29.59243182h11.4820646v-10.3743679l4.0244609-6.9706071v27.3004858c6.0304428-3.7422207 10.046364-10.4231061 10.046364-18.0420982 0-9.7313982-6.7396494-15.51145973-6.6775808-15.45293221l1.9337075-3.34919061c5.2248007 4.58201772 8.5248503 11.30643432 8.5248503 18.80212282 0 9.7905506-5.6294963 18.2647527-13.827341 22.3673029v.0031242c-1.2824038.64172-2.6279175 1.1765907-4.0244609 1.5927401v-.0020828c0-3.9502953 0-7.8833032 0-11.8498446-5.7621731.0008331-11.5243463.0129135-17.2867277.0129135h-1.1605577l18.5224759-32.08183019c-2.2546728-.81646936-4.6870118-1.26136184-7.2234927-1.26136184-11.7188835 0-21.21912717 9.49999583-21.21912717 21.21903873s9.50024367 21.219247 21.21912717 21.219247c.8704182 0 1.728756-.0524873 2.5716809-.1543377v3.804289c-.8454243.0864374-1.7033455.1308017-2.5716809.1308017-13.8069292 0-24.9998959-11.19292-24.9998959-25 0-13.8068717 11.1929667-25 24.9998959-25" fill="#f15842" /></g></svg>
